<?xml version="1.0" encoding="utf-8"?>
<!-- Generator: Adobe Illustrator 28.0.0, SVG Export Plug-In . SVG Version: 6.00 Build 0)  -->
<svg version="1.1" id="Lag_2" xmlns="http://www.w3.org/2000/svg" xmlns:xlink="http://www.w3.org/1999/xlink" x="0px" y="0px"
	 viewBox="0 0 1366 514.1" style="enable-background:new 0 0 1366 514.1;" xml:space="preserve">
<style type="text/css">
	.st0{fill:#CFEEB7;}
</style>
<g id="Lag_1-2">
	<path class="st0" d="M0,739.7h1366V567.2c0,0-25-34.5-62-53.5c-22.7-11.6-9-57-24.5-92.5c-8-18.4-143-98-159-116s-63-65-94-62
		S944,250.7,895,190.7c-11.6-14.2-46-48-112.5-52.5c-8-0.5-46.3-14.3-63-29C686,79.7,614,125.7,559,119.7
		c-20.9-2.3-98.3-45.4-117.5-46.5c-42.5-2.5-163,21-197.5,29.5c-24.4,6-110,3-138-21C42,26.8,0,42.2,0,42.2L0,739.7z"/>
</g>
</svg>
