<?xml version="1.0" encoding="UTF-8"?>
<svg id="Lag_2" data-name="Lag 2" xmlns="http://www.w3.org/2000/svg" viewBox="0 0 1366 699.48">
  <defs>
    <style>
      .cls-1 {
        fill: #30b24b;
        stroke-width: 0px;
      }
    </style>
  </defs>
  <g id="Lag_1-2" data-name="Lag 1">
    <path class="cls-1" d="M0,697.5s42,15.36,106-39.5c28-24,113.55-27.02,138-21,34.5,8.5,155,32,197.5,29.5,19.18-1.13,96.62-44.22,117.5-46.5,55-6,127,40,160.5,10.5,16.66-14.67,55.02-28.46,63-29,66.5-4.5,100.89-38.28,112.5-52.5,49-60,100.5-55.5,131.5-52.5s78-44,94-62c16-18,150.96-97.58,159-116,15.5-35.5,1.82-80.85,24.5-92.5,37-19,62-53.5,62-53.5V0H0v697.5Z"/>
  </g>
</svg>