<?xml version="1.0" encoding="utf-8"?>
<!-- Generator: Adobe Illustrator 28.0.0, SVG Export Plug-In . SVG Version: 6.00 Build 0)  -->
<svg version="1.1" id="Lag_2" xmlns="http://www.w3.org/2000/svg" xmlns:xlink="http://www.w3.org/1999/xlink" x="0px" y="0px"
	 viewBox="0 0 1366 699.5" style="enable-background:new 0 0 1366 699.5;" xml:space="preserve">
<style type="text/css">
	.st0{fill:#CFEEB7;}
</style>
<g id="Lag_1-2">
	<path class="st0" d="M0,697.5c0,0,42,15.4,106-39.5c28-24,113.6-27,138-21c34.5,8.5,155,32,197.5,29.5
		c19.2-1.1,96.6-44.2,117.5-46.5c55-6,127,40,160.5,10.5c16.7-14.7,55-28.5,63-29C849,597,883.4,563.2,895,549
		c49-60,100.5-55.5,131.5-52.5s78-44,94-62s151-97.6,159-116c15.5-35.5,1.8-80.9,24.5-92.5c37-19,62-53.5,62-53.5V0H0V697.5z"/>
</g>
</svg>
